<?xml version="1.0" encoding="utf-8"?>
<svg version="1.1" id="Layer_1" xmlns="http://www.w3.org/2000/svg" x="0px" y="0px" width="100%" viewBox="0 0 736 544" enable-background="new 0 0 736 544">
  <path opacity="1.000000" stroke="none" d=" M243.709839,318.871338 C243.683136,316.729523 243.752258,315.059509 243.657455,313.398834 C243.509613,310.809296 244.041504,308.950104 247.062332,308.311096 C250.480377,307.588104 251.840073,305.124573 251.807861,301.660431 C251.713409,291.500153 251.931000,281.332153 251.601883,271.180969 C251.452881,266.585327 251.092926,261.241211 245.582153,259.646729 C240.351776,258.133392 236.156784,261.081787 232.959900,264.967010 C228.869629,269.937988 226.078552,275.518280 226.224319,282.252625 C226.357666,288.413513 226.349213,294.581482 226.220566,300.742523 C226.140656,304.568604 227.609039,307.059296 231.277527,308.378204 C237.432480,310.591064 233.707825,315.733459 234.191238,319.485168 C234.652618,323.065979 231.261871,322.337311 229.105682,322.349304 C217.111710,322.416168 205.117142,322.385590 193.122787,322.378571 C190.754089,322.377197 187.857025,322.511322 188.141235,319.150085 C188.444870,315.559326 185.636581,310.715149 190.852875,308.704224 C195.102753,307.065857 196.883179,304.483093 196.688202,300.041077 C196.221634,289.412109 197.538010,278.735138 195.768814,268.135468 C194.315781,259.429993 188.345535,256.525238 181.041626,261.454163 C174.594574,265.804840 171.223938,272.481476 170.645340,280.015900 C170.099701,287.121246 170.855484,294.320038 170.879303,301.478271 C170.891449,305.130157 172.305771,307.456512 175.906586,308.502838 C182.195908,310.330444 178.592377,315.428040 179.039337,319.021027 C179.505096,322.765106 176.228928,322.375244 173.759125,322.378693 C160.598679,322.397095 147.435776,322.246490 134.279053,322.469299 C129.943832,322.542725 128.588791,321.180847 128.486969,316.776459 C128.368164,311.636902 128.972412,308.237457 135.129059,307.803314 C139.198105,307.516418 140.901001,304.607025 140.853836,300.422333 C140.720535,288.596100 140.828049,276.767334 140.792755,264.939697 C140.772888,258.283356 139.694260,256.509338 133.093338,255.587296 C125.570511,254.536484 129.360611,249.090042 128.802292,245.555939 C128.090851,241.052734 131.832062,241.743439 134.556152,241.731842 C145.051041,241.687119 155.547318,241.792847 166.040649,241.655762 C169.483841,241.610794 170.917938,242.786850 170.595657,246.324417 C170.345413,249.071274 170.545639,251.859177 170.545639,256.107147 C178.625702,246.197678 187.705505,240.909592 199.361496,240.073090 C210.669708,239.261551 219.486603,244.136124 225.777527,255.729248 C227.789963,255.285416 228.438354,253.371460 229.586380,252.055389 C239.431793,240.768784 257.185242,236.797379 270.169098,243.008606 C272.921844,244.325470 275.261932,246.102692 277.189178,248.489227 C278.816345,250.504074 279.158234,252.316574 277.887360,254.830475 C275.407440,259.735962 275.132538,264.951416 278.711060,269.428223 C282.362610,273.996399 287.746399,273.171295 292.644348,272.393097 C297.264099,271.659088 299.912048,268.349976 300.348755,263.738342 C300.728241,259.731201 298.486877,257.208160 294.771332,255.874115 C294.036072,255.610168 293.409332,255.043900 292.684113,254.586472 C297.749207,249.548401 310.366577,247.827881 317.713898,250.929474 C325.478485,254.207169 327.406921,260.870117 327.995422,268.346741 C328.228394,271.306519 326.887787,272.982819 323.951416,273.655945 C313.092896,276.145294 302.254639,278.723145 291.412140,281.282013 C289.792572,281.664246 288.160889,282.033264 286.586334,282.561859 C279.053253,285.090912 273.082733,289.316254 271.704712,297.749359 C270.303650,306.323608 271.929932,314.012054 279.324127,319.609497 C279.849335,320.007050 280.302643,320.502472 280.768524,320.973022 C280.863434,321.068939 280.864471,321.257812 281.016388,321.758514 C279.439514,322.787170 277.588287,322.357117 275.880768,322.365662 C266.718658,322.411530 257.556152,322.396027 248.393860,322.368286 C246.232208,322.361755 243.831467,322.594635 243.709839,318.871338 z" style="fill: rgb(39, 62, 61);"/>
  <path opacity="1.000000" stroke="none" d=" M430.860046,241.705978 C434.616180,241.527191 437.178284,241.823242 437.307526,246.258408 C437.543030,254.339096 437.530792,255.068527 432.079285,255.649155 C421.440887,256.782227 412.316772,261.098938 404.301361,267.648254 C403.797211,269.211639 404.654541,270.132111 405.270630,271.077881 C411.908600,281.268188 418.621674,291.409973 425.203766,301.636139 C427.802032,305.672882 431.158661,308.420929 436.054535,308.655060 C439.360718,308.813141 440.375427,310.573669 440.289948,313.514313 C440.241577,315.179413 440.201904,316.848450 440.260406,318.512115 C440.356506,321.243713 439.113098,322.400452 436.369934,322.391022 C420.206787,322.335480 404.043304,322.325531 387.880096,322.366364 C385.070129,322.373474 384.170380,320.977417 383.938263,318.399445 C383.290466,311.204987 383.991211,310.151978 391.056763,308.768311 C393.654114,308.259583 395.267914,307.112885 393.524597,304.354401 C389.184143,297.486359 384.727722,290.691620 380.208405,283.698090 C374.807434,286.136658 370.350494,289.303467 365.823486,292.344574 C364.058929,293.529968 364.006775,295.374847 364.040466,297.257050 C364.100006,300.586426 364.306610,303.940613 363.234985,307.171082 C362.516876,309.335724 361.388733,311.191589 358.754333,311.161774 C355.914948,311.129669 354.628998,309.149689 354.059174,306.761047 C353.679291,305.168610 353.724091,303.455261 353.720734,301.795776 C353.698120,290.631378 353.668945,279.466614 353.728973,268.302460 C353.790924,256.778076 348.866669,248.378799 338.140289,243.902969 C334.734375,242.481781 333.728088,240.383606 333.879089,237.001389 C334.049774,233.176758 333.782806,229.333221 333.933777,225.506882 C334.103394,221.208084 331.918243,219.193268 327.969482,218.250031 C320.283112,216.413971 319.910187,215.577484 320.709045,207.493591 C321.000916,204.539810 322.617523,203.913040 325.029419,203.910538 C336.360382,203.898773 347.692413,203.986145 359.021729,203.846100 C363.539673,203.790268 364.122925,206.390991 364.118134,209.975266 C364.090088,230.970901 364.136536,251.966644 364.157501,272.962341 C364.158997,274.438690 364.157684,275.915039 364.157684,277.376282 C366.445374,277.896240 367.516296,276.364227 368.818024,275.485779 C375.584473,270.919586 382.317810,266.304138 389.047150,261.683258 C390.434998,260.730255 391.979523,259.662415 391.349182,257.691833 C390.767883,255.874588 389.071411,255.552933 387.321655,255.312820 C385.156891,255.015747 382.015656,256.465851 381.088867,253.690582 C379.995728,250.417267 380.091858,246.718491 381.093781,243.346878 C381.757965,241.111740 384.157227,241.753006 385.888672,241.746750 C400.718719,241.693100 415.549011,241.710770 430.860046,241.705978 z" style="fill: rgb(39, 62, 61);"/>
  <path opacity="1.000000" stroke="none" d=" M515.908325,306.694214 C507.058929,321.232758 491.902985,327.619110 473.980957,324.968689 C462.118225,323.214386 450.888733,320.047180 443.981018,309.394867 C433.604523,293.393311 433.481842,276.168396 441.468201,259.463837 C448.793549,244.141815 462.932373,239.151260 479.095673,238.662079 C487.535339,238.406662 495.683228,239.430313 503.409119,242.996429 C515.595276,248.621277 525.084351,267.535004 522.258301,280.349854 C521.505188,283.764740 518.879761,283.061279 516.728271,283.074341 C501.746582,283.165314 486.764160,283.131470 471.782135,283.185425 C470.001740,283.191833 468.125671,282.695007 466.223145,283.899841 C465.690460,290.588867 466.767609,297.091736 470.177704,302.966400 C475.541077,312.206024 490.227325,313.055267 499.648712,304.844788 C500.646240,303.975433 501.991669,303.069672 502.316528,301.934845 C504.409637,294.622955 510.176208,295.701477 515.599609,295.817322 C518.895935,295.887756 519.689331,297.452393 518.508484,300.347900 C517.692200,302.349640 516.888855,304.356750 515.908325,306.694214 M476.626129,251.636826 C469.735413,254.535797 467.867279,260.733093 466.482788,267.201721 C465.924896,269.808289 467.275726,270.833801 469.796295,270.825043 C477.775696,270.797363 485.755646,270.793243 493.734772,270.856567 C496.675446,270.879883 497.312744,269.578918 497.011505,266.789398 C495.744171,255.053726 489.109528,249.753067 476.626129,251.636826 z" style="fill: rgb(39, 62, 61);"/>
  <path opacity="1.000000" stroke="none" d=" M567.557007,249.387848 C574.474487,240.839035 583.143860,237.699203 593.506165,239.937225 C610.952942,243.705322 612.652039,261.234253 606.445496,271.141632 C602.205750,277.909607 590.987915,278.815186 585.340881,273.189575 C579.251648,267.123505 581.643127,258.608948 590.700073,254.109344 C586.901306,250.586716 582.746338,250.014191 578.292419,253.139969 C569.791382,259.106110 564.784363,267.311523 564.307068,277.826111 C564.020264,284.142944 564.292786,290.484039 564.264038,296.813995 C564.222778,305.897491 565.205627,307.073181 573.951477,308.568298 C575.765564,308.878418 578.517029,307.888306 578.975525,310.620026 C579.573303,314.181915 580.030151,317.915741 578.501099,321.393036 C577.990784,322.553619 576.466797,322.357971 575.320557,322.359894 C558.495667,322.388031 541.670532,322.350281 524.846130,322.447021 C521.971313,322.463562 520.942627,321.194611 520.986389,318.563934 C521.014099,316.898590 521.059082,315.230133 520.991577,313.567352 C520.864746,310.440002 521.848450,308.933899 525.417908,308.471222 C533.186340,307.464294 534.614746,305.467010 534.616821,297.654236 C534.619629,286.993164 534.718689,276.328705 534.482666,265.672211 C534.322021,258.416077 532.588745,256.331818 525.561035,255.553177 C521.905090,255.148132 521.361267,253.675293 521.335815,250.497604 C521.265625,241.710068 521.127075,241.707672 529.973511,241.705551 C538.968994,241.703400 547.964539,241.703293 556.960022,241.713150 C564.180115,241.721069 564.181702,241.728271 564.250916,248.729401 C564.262146,249.866577 564.252441,251.003937 564.252441,252.258179 C566.173523,252.053787 566.429688,250.473831 567.557007,249.387848 z" style="fill: rgb(39, 62, 61);"/>
  <path opacity="1.000000" stroke="none" d=" M301.312988,308.200317 C294.064636,302.547821 294.142365,294.147156 301.532745,289.374390 C309.250122,284.390503 318.172028,282.103333 327.872681,278.222565 C327.581360,286.907684 330.764282,294.873138 324.675873,301.770844 C318.484009,308.785767 310.758392,311.092682 301.312988,308.200317 z" style="fill: rgb(39, 62, 61);"/>
  <path opacity="1.000000" stroke="none" d=" M339.837646,321.600159 C331.877686,322.907745 324.043121,322.215851 315.931061,321.748230 C321.065430,317.715698 326.161743,313.940552 329.990875,306.639923 C332.129181,313.482605 335.425293,317.872803 339.837646,321.600159 z" style="fill: rgb(39, 62, 61);"/>
  <path opacity="1.000000" stroke="none" d=" M376.270660,316.966614 C376.604309,320.928436 375.305847,322.753265 371.517120,322.412170 C368.101532,322.104675 364.623535,322.817963 360.031433,321.684265 C365.249176,318.517334 368.841980,314.873718 371.022095,310.006683 C371.546082,308.836853 372.906067,308.786163 374.103058,309.057556 C375.404053,309.352570 376.043793,310.299103 376.132782,311.546967 C376.250153,313.191772 376.234100,314.846130 376.270660,316.966614 z" style="fill: rgb(39, 62, 61);"/>
</svg>